<svg width="1280" height="720" viewBox="0 0 1280 720" fill="none" xmlns="http://www.w3.org/2000/svg">
<rect y="2.14648e-07" width="1280" height="720" fill="#552C1F"/>
<g style="mix-blend-mode:luminosity" opacity="0.26">
<mask id="mask0" mask-type="alpha" maskUnits="userSpaceOnUse" x="-18" y="0" width="1392" height="720">
<rect x="-18" y="720" width="720" height="1392" transform="rotate(-90 -18 720)" fill="white" fill-opacity="0.17"/>
</mask>
<g mask="url(#mask0)">
<rect width="3845" height="1796" transform="translate(-463 2449) rotate(-90)" fill="#003365" fill-opacity="0.2"/>
<path d="M1067 295L1154 295L1154 430L1067 430L1067 295Z" stroke="white" stroke-width="2"/>
<path d="M955 433L1064 433L1064 728L955 728L955 433Z" stroke="white" stroke-width="2"/>
<path d="M584 24.0008L584 431.603L483.905 431.603L483.905 159.531L483.905 158.531L482.905 158.531L444.102 158.531L443.102 158.531L443.102 159.531L443.102 434L343 434L343 24.1965L584 24.0008Z" stroke="white" stroke-width="2"/>
<path d="M698.905 184.019L698.914 184.019L698.923 184.019L961 184.019L961 297L592.094 297C595.591 259.293 608.806 230.898 627.757 212.015C646.885 192.955 671.92 183.52 698.905 184.019Z" stroke="white" stroke-width="2"/>
<path d="M595.695 566.139L595.695 565.139L594.695 565.139L463.733 565.139C406.563 557.13 366.649 507.814 361.089 445L713 445L713 737L595.695 737L595.695 566.139Z" stroke="white" stroke-width="2"/>
<path d="M242 223L330 223L330 357L242 357L242 223Z" stroke="white" stroke-width="2"/>
<path d="M-95 445L144 445L144 580L-95 580L-95 445Z" stroke="white" stroke-width="2"/>
<path d="M121 134L230 134L230 429L121 429L121 134Z" stroke="white" stroke-width="2"/>
<path d="M345 441L345 747.744C343.223 779.945 333.997 806.336 318.702 826.379C303.651 846.103 282.678 859.736 257 866.699L257.077 441L345 441Z" stroke="white" stroke-width="2"/>
<path d="M145 -263.999L145 143.603L44.9052 143.603L44.9052 -128.469L44.9052 -129.469L43.9052 -129.469L5.10246 -129.469L4.10246 -129.469L4.10246 -128.469L4.10246 146L-96 146L-96 -263.803L145 -263.999Z" stroke="white" stroke-width="2"/>
</g>
</g>
</svg>
